<mxfile host="Electron" agent="Mozilla/5.0 (Windows NT 10.0; Win64; x64) AppleWebKit/537.36 (KHTML, like Gecko) draw.io/28.1.2 Chrome/138.0.7204.243 Electron/37.4.0 Safari/537.36" version="28.1.2">
  <diagram name="ページ1" id="fPt53Xz2roqVLJ2DghM2">
    <mxGraphModel dx="1029" dy="668" grid="0" gridSize="10" guides="1" tooltips="1" connect="1" arrows="1" fold="1" page="1" pageScale="1" pageWidth="1169" pageHeight="827" math="0" shadow="0">
      <root>
        <mxCell id="0" />
        <mxCell id="1" parent="0" />
        <mxCell id="ZIIBvZ8sPeHpr9DOdTy8-1" value="事務職員" style="shape=umlActor;verticalLabelPosition=bottom;verticalAlign=top;html=1;" vertex="1" parent="1">
          <mxGeometry x="96" y="343" width="30" height="60" as="geometry" />
        </mxCell>
        <mxCell id="ZIIBvZ8sPeHpr9DOdTy8-2" value="返却メニュー画面" style="shape=umlBoundary;whiteSpace=wrap;html=1;fillColor=#d5e8d4;strokeColor=#82b366;" vertex="1" parent="1">
          <mxGeometry x="266" y="480" width="100" height="80" as="geometry" />
        </mxCell>
        <mxCell id="ZIIBvZ8sPeHpr9DOdTy8-3" value="退却完了画面" style="shape=umlBoundary;whiteSpace=wrap;html=1;fillColor=#d5e8d4;strokeColor=#82b366;" vertex="1" parent="1">
          <mxGeometry x="272" y="629" width="100" height="80" as="geometry" />
        </mxCell>
        <mxCell id="ZIIBvZ8sPeHpr9DOdTy8-4" value="返却一覧画面" style="shape=umlBoundary;whiteSpace=wrap;html=1;fillColor=#d5e8d4;strokeColor=#82b366;" vertex="1" parent="1">
          <mxGeometry x="254" y="64" width="100" height="80" as="geometry" />
        </mxCell>
        <mxCell id="ZIIBvZ8sPeHpr9DOdTy8-5" value="図書の検索" style="ellipse;shape=umlControl;whiteSpace=wrap;html=1;fillColor=#f8cecc;strokeColor=#b85450;" vertex="1" parent="1">
          <mxGeometry x="428" y="333" width="70" height="80" as="geometry" />
        </mxCell>
        <mxCell id="ZIIBvZ8sPeHpr9DOdTy8-12" value="図書&amp;nbsp;&amp;nbsp;" style="ellipse;shape=umlEntity;whiteSpace=wrap;html=1;fillColor=#dae8fc;strokeColor=#6c8ebf;" vertex="1" parent="1">
          <mxGeometry x="460" y="502" width="80" height="80" as="geometry" />
        </mxCell>
        <mxCell id="ZIIBvZ8sPeHpr9DOdTy8-13" value="貸出情報" style="ellipse;shape=umlEntity;whiteSpace=wrap;html=1;fillColor=#dae8fc;strokeColor=#6c8ebf;" vertex="1" parent="1">
          <mxGeometry x="557" y="417" width="80" height="80" as="geometry" />
        </mxCell>
        <mxCell id="ZIIBvZ8sPeHpr9DOdTy8-15" value="返却図書の管理番号を入力&amp;nbsp;" style="html=1;verticalAlign=bottom;endArrow=block;curved=0;rounded=0;entryX=0;entryY=0.5;entryDx=0;entryDy=0;entryPerimeter=0;exitX=0.5;exitY=0;exitDx=0;exitDy=0;exitPerimeter=0;" edge="1" parent="1" source="ZIIBvZ8sPeHpr9DOdTy8-1" target="ZIIBvZ8sPeHpr9DOdTy8-4">
          <mxGeometry x="0.0024" width="80" relative="1" as="geometry">
            <mxPoint x="110" y="270" as="sourcePoint" />
            <mxPoint x="200" y="280" as="targetPoint" />
            <Array as="points">
              <mxPoint x="110" y="104" />
            </Array>
            <mxPoint as="offset" />
          </mxGeometry>
        </mxCell>
        <mxCell id="ZIIBvZ8sPeHpr9DOdTy8-16" value="返却ボタン押下" style="html=1;verticalAlign=bottom;endArrow=block;curved=0;rounded=0;entryX=0.007;entryY=0.737;entryDx=0;entryDy=0;entryPerimeter=0;" edge="1" parent="1" target="ZIIBvZ8sPeHpr9DOdTy8-4">
          <mxGeometry width="80" relative="1" as="geometry">
            <mxPoint x="130" y="290" as="sourcePoint" />
            <mxPoint x="210" y="290" as="targetPoint" />
          </mxGeometry>
        </mxCell>
        <mxCell id="ZIIBvZ8sPeHpr9DOdTy8-18" value="返却メニューを押下" style="html=1;verticalAlign=bottom;endArrow=block;curved=0;rounded=0;entryX=-0.04;entryY=0.529;entryDx=0;entryDy=0;entryPerimeter=0;" edge="1" parent="1" target="ZIIBvZ8sPeHpr9DOdTy8-2">
          <mxGeometry x="0.0635" y="-10" width="80" relative="1" as="geometry">
            <mxPoint x="130" y="290" as="sourcePoint" />
            <mxPoint x="270" y="140" as="targetPoint" />
            <mxPoint as="offset" />
          </mxGeometry>
        </mxCell>
        <mxCell id="ZIIBvZ8sPeHpr9DOdTy8-19" value="返却完了を確認" style="html=1;verticalAlign=bottom;endArrow=block;curved=0;rounded=0;entryX=0;entryY=1;entryDx=0;entryDy=0;entryPerimeter=0;exitX=0;exitY=0.5;exitDx=0;exitDy=0;exitPerimeter=0;" edge="1" parent="1" source="ZIIBvZ8sPeHpr9DOdTy8-3" target="ZIIBvZ8sPeHpr9DOdTy8-1">
          <mxGeometry x="0.22" y="2" width="80" relative="1" as="geometry">
            <mxPoint x="150" y="419.5" as="sourcePoint" />
            <mxPoint x="230" y="419.5" as="targetPoint" />
            <Array as="points" />
            <mxPoint as="offset" />
          </mxGeometry>
        </mxCell>
        <mxCell id="ZIIBvZ8sPeHpr9DOdTy8-22" value="&lt;div&gt;返却完了画面表示&amp;nbsp;&amp;nbsp;&lt;/div&gt;" style="html=1;verticalAlign=bottom;endArrow=block;curved=0;rounded=0;exitX=0.086;exitY=0.854;exitDx=0;exitDy=0;exitPerimeter=0;entryX=1.02;entryY=0.446;entryDx=0;entryDy=0;entryPerimeter=0;" edge="1" parent="1" source="ZIIBvZ8sPeHpr9DOdTy8-5" target="ZIIBvZ8sPeHpr9DOdTy8-3">
          <mxGeometry x="0.5205" y="-5" width="80" relative="1" as="geometry">
            <mxPoint x="370" y="410" as="sourcePoint" />
            <mxPoint x="318" y="480" as="targetPoint" />
            <Array as="points" />
            <mxPoint as="offset" />
          </mxGeometry>
        </mxCell>
        <mxCell id="ZIIBvZ8sPeHpr9DOdTy8-25" value="管理番号で図書検索" style="html=1;verticalAlign=bottom;endArrow=block;curved=0;rounded=0;entryX=1;entryY=0;entryDx=0;entryDy=0;" edge="1" parent="1" source="ZIIBvZ8sPeHpr9DOdTy8-5" target="ZIIBvZ8sPeHpr9DOdTy8-12">
          <mxGeometry x="0.196" y="-8" width="80" relative="1" as="geometry">
            <mxPoint x="410" y="530" as="sourcePoint" />
            <mxPoint x="490" y="530" as="targetPoint" />
            <mxPoint as="offset" />
          </mxGeometry>
        </mxCell>
        <mxCell id="ZIIBvZ8sPeHpr9DOdTy8-29" value="図書情報取得" style="html=1;verticalAlign=bottom;endArrow=block;curved=0;rounded=0;entryX=0.308;entryY=0.969;entryDx=0;entryDy=0;entryPerimeter=0;exitX=0;exitY=0.5;exitDx=0;exitDy=0;" edge="1" parent="1" source="ZIIBvZ8sPeHpr9DOdTy8-12" target="ZIIBvZ8sPeHpr9DOdTy8-5">
          <mxGeometry x="-0.4556" y="-3" width="80" relative="1" as="geometry">
            <mxPoint x="451" y="456" as="sourcePoint" />
            <mxPoint x="418" y="335" as="targetPoint" />
            <mxPoint as="offset" />
          </mxGeometry>
        </mxCell>
        <mxCell id="ZIIBvZ8sPeHpr9DOdTy8-32" value="図書情報を&lt;div&gt;履歴に追加&lt;/div&gt;" style="html=1;verticalAlign=bottom;endArrow=block;curved=0;rounded=0;entryX=0.888;entryY=0.883;entryDx=0;entryDy=0;entryPerimeter=0;exitX=0.152;exitY=0.226;exitDx=0;exitDy=0;exitPerimeter=0;" edge="1" parent="1">
          <mxGeometry x="-0.1336" y="1" width="80" relative="1" as="geometry">
            <mxPoint x="438.6400000000001" y="350.43999999999994" as="sourcePoint" />
            <mxPoint x="342.79999999999995" y="134" as="targetPoint" />
            <Array as="points">
              <mxPoint x="417" y="201" />
            </Array>
            <mxPoint as="offset" />
          </mxGeometry>
        </mxCell>
        <mxCell id="ZIIBvZ8sPeHpr9DOdTy8-38" value="" style="html=1;verticalAlign=bottom;endArrow=block;curved=0;rounded=0;exitX=0.6;exitY=-0.037;exitDx=0;exitDy=0;exitPerimeter=0;" edge="1" parent="1" source="ZIIBvZ8sPeHpr9DOdTy8-2" target="ZIIBvZ8sPeHpr9DOdTy8-37">
          <mxGeometry x="0.3107" width="80" relative="1" as="geometry">
            <mxPoint x="320" y="207" as="sourcePoint" />
            <mxPoint x="320" y="120" as="targetPoint" />
            <mxPoint as="offset" />
          </mxGeometry>
        </mxCell>
        <mxCell id="ZIIBvZ8sPeHpr9DOdTy8-37" value="返却一覧画面表示" style="ellipse;shape=umlControl;whiteSpace=wrap;html=1;fillColor=#f8cecc;strokeColor=#b85450;" vertex="1" parent="1">
          <mxGeometry x="205" y="279" width="70" height="80" as="geometry" />
        </mxCell>
        <mxCell id="ZIIBvZ8sPeHpr9DOdTy8-39" value="" style="html=1;verticalAlign=bottom;endArrow=block;curved=0;rounded=0;entryX=0.212;entryY=0.828;entryDx=0;entryDy=0;entryPerimeter=0;" edge="1" parent="1" source="ZIIBvZ8sPeHpr9DOdTy8-37" target="ZIIBvZ8sPeHpr9DOdTy8-4">
          <mxGeometry width="80" relative="1" as="geometry">
            <mxPoint x="221" y="187" as="sourcePoint" />
            <mxPoint x="301" y="187" as="targetPoint" />
          </mxGeometry>
        </mxCell>
        <mxCell id="ZIIBvZ8sPeHpr9DOdTy8-44" value="返却処理" style="ellipse;shape=umlControl;whiteSpace=wrap;html=1;fillColor=#f8cecc;strokeColor=#b85450;" vertex="1" parent="1">
          <mxGeometry x="659" y="263" width="73" height="80" as="geometry" />
        </mxCell>
        <mxCell id="ZIIBvZ8sPeHpr9DOdTy8-45" value="" style="html=1;verticalAlign=bottom;endArrow=block;curved=0;rounded=0;exitX=0.994;exitY=0.35;exitDx=0;exitDy=0;exitPerimeter=0;entryX=0.524;entryY=0.117;entryDx=0;entryDy=0;entryPerimeter=0;" edge="1" parent="1" source="ZIIBvZ8sPeHpr9DOdTy8-4" target="ZIIBvZ8sPeHpr9DOdTy8-44">
          <mxGeometry width="80" relative="1" as="geometry">
            <mxPoint x="369" y="73" as="sourcePoint" />
            <mxPoint x="437" y="179" as="targetPoint" />
            <Array as="points">
              <mxPoint x="579" y="92" />
            </Array>
          </mxGeometry>
        </mxCell>
        <mxCell id="ZIIBvZ8sPeHpr9DOdTy8-46" value="更新" style="html=1;verticalAlign=bottom;endArrow=block;curved=0;rounded=0;exitX=0.256;exitY=0.885;exitDx=0;exitDy=0;exitPerimeter=0;entryX=0.994;entryY=0.371;entryDx=0;entryDy=0;entryPerimeter=0;" edge="1" parent="1" source="ZIIBvZ8sPeHpr9DOdTy8-44" target="ZIIBvZ8sPeHpr9DOdTy8-13">
          <mxGeometry width="80" relative="1" as="geometry">
            <mxPoint x="538" y="59" as="sourcePoint" />
            <mxPoint x="618" y="59" as="targetPoint" />
            <Array as="points" />
          </mxGeometry>
        </mxCell>
        <mxCell id="ZIIBvZ8sPeHpr9DOdTy8-47" value="更新結果" style="html=1;verticalAlign=bottom;endArrow=block;curved=0;rounded=0;exitX=0.5;exitY=0;exitDx=0;exitDy=0;entryX=0.049;entryY=0.785;entryDx=0;entryDy=0;entryPerimeter=0;" edge="1" parent="1" source="ZIIBvZ8sPeHpr9DOdTy8-13" target="ZIIBvZ8sPeHpr9DOdTy8-44">
          <mxGeometry width="80" relative="1" as="geometry">
            <mxPoint x="819" y="505" as="sourcePoint" />
            <mxPoint x="607" y="303" as="targetPoint" />
            <Array as="points" />
          </mxGeometry>
        </mxCell>
        <mxCell id="ZIIBvZ8sPeHpr9DOdTy8-50" value="" style="html=1;verticalAlign=bottom;endArrow=block;curved=0;rounded=0;entryX=0.947;entryY=0.665;entryDx=0;entryDy=0;entryPerimeter=0;exitX=0.531;exitY=1.022;exitDx=0;exitDy=0;exitPerimeter=0;" edge="1" parent="1" source="ZIIBvZ8sPeHpr9DOdTy8-44" target="ZIIBvZ8sPeHpr9DOdTy8-3">
          <mxGeometry width="80" relative="1" as="geometry">
            <mxPoint x="768" y="363" as="sourcePoint" />
            <mxPoint x="393" y="672" as="targetPoint" />
            <Array as="points">
              <mxPoint x="633" y="570" />
            </Array>
          </mxGeometry>
        </mxCell>
        <mxCell id="ZIIBvZ8sPeHpr9DOdTy8-51" value="管理番号が登録されていなかった場合&lt;div&gt;エラー表示&lt;/div&gt;" style="html=1;verticalAlign=bottom;endArrow=block;curved=0;rounded=0;exitX=0.86;exitY=0.275;exitDx=0;exitDy=0;exitPerimeter=0;entryX=0.977;entryY=0.639;entryDx=0;entryDy=0;entryPerimeter=0;" edge="1" parent="1" source="ZIIBvZ8sPeHpr9DOdTy8-5" target="ZIIBvZ8sPeHpr9DOdTy8-4">
          <mxGeometry width="80" relative="1" as="geometry">
            <mxPoint x="511" y="215" as="sourcePoint" />
            <mxPoint x="412" y="94" as="targetPoint" />
            <Array as="points">
              <mxPoint x="478" y="112" />
            </Array>
          </mxGeometry>
        </mxCell>
        <mxCell id="ZIIBvZ8sPeHpr9DOdTy8-52" value="" style="html=1;verticalAlign=bottom;endArrow=block;curved=0;rounded=0;exitX=0.968;exitY=0.806;exitDx=0;exitDy=0;exitPerimeter=0;entryX=0.559;entryY=-0.018;entryDx=0;entryDy=0;entryPerimeter=0;" edge="1" parent="1" source="ZIIBvZ8sPeHpr9DOdTy8-4" target="ZIIBvZ8sPeHpr9DOdTy8-5">
          <mxGeometry width="80" relative="1" as="geometry">
            <mxPoint x="406" y="168" as="sourcePoint" />
            <mxPoint x="486" y="168" as="targetPoint" />
            <Array as="points">
              <mxPoint x="447" y="182" />
            </Array>
          </mxGeometry>
        </mxCell>
        <mxCell id="ZIIBvZ8sPeHpr9DOdTy8-53" value="返却期限を過ぎていた場合&lt;div&gt;メッセージを表示&lt;/div&gt;" style="html=1;verticalAlign=bottom;endArrow=block;curved=0;rounded=0;entryX=0.337;entryY=0.983;entryDx=0;entryDy=0;entryPerimeter=0;exitX=0.022;exitY=0.631;exitDx=0;exitDy=0;exitPerimeter=0;" edge="1" parent="1" source="ZIIBvZ8sPeHpr9DOdTy8-5" target="ZIIBvZ8sPeHpr9DOdTy8-4">
          <mxGeometry x="-0.5528" y="23" width="80" relative="1" as="geometry">
            <mxPoint x="323" y="282" as="sourcePoint" />
            <mxPoint x="403" y="282" as="targetPoint" />
            <Array as="points">
              <mxPoint x="298" y="315" />
            </Array>
            <mxPoint as="offset" />
          </mxGeometry>
        </mxCell>
        <mxCell id="ZIIBvZ8sPeHpr9DOdTy8-54" value="貸し出し中でなかった場合&lt;div&gt;メッセージを表示&lt;/div&gt;" style="html=1;verticalAlign=bottom;endArrow=block;curved=0;rounded=0;entryX=0.639;entryY=1.05;entryDx=0;entryDy=0;entryPerimeter=0;exitX=0.062;exitY=0.389;exitDx=0;exitDy=0;exitPerimeter=0;" edge="1" parent="1" source="ZIIBvZ8sPeHpr9DOdTy8-5" target="ZIIBvZ8sPeHpr9DOdTy8-4">
          <mxGeometry x="-0.0559" y="-4" width="80" relative="1" as="geometry">
            <mxPoint x="431" y="308" as="sourcePoint" />
            <mxPoint x="405" y="259" as="targetPoint" />
            <Array as="points">
              <mxPoint x="338" y="269" />
            </Array>
            <mxPoint as="offset" />
          </mxGeometry>
        </mxCell>
        <mxCell id="ZIIBvZ8sPeHpr9DOdTy8-55" value="返却する図書が一冊も入力されていなかった場合&lt;div&gt;メッセージを表示&lt;/div&gt;" style="html=1;verticalAlign=bottom;endArrow=block;curved=0;rounded=0;exitX=0.932;exitY=0.228;exitDx=0;exitDy=0;exitPerimeter=0;entryX=0.194;entryY=0.239;entryDx=0;entryDy=0;entryPerimeter=0;" edge="1" parent="1" source="ZIIBvZ8sPeHpr9DOdTy8-4" target="ZIIBvZ8sPeHpr9DOdTy8-4">
          <mxGeometry x="-0.126" y="8" width="80" relative="1" as="geometry">
            <mxPoint x="348" y="17" as="sourcePoint" />
            <mxPoint x="259" y="21" as="targetPoint" />
            <Array as="points">
              <mxPoint x="353" y="41" />
              <mxPoint x="261" y="51" />
            </Array>
            <mxPoint as="offset" />
          </mxGeometry>
        </mxCell>
        <mxCell id="ZIIBvZ8sPeHpr9DOdTy8-56" value="予約情報" style="ellipse;shape=umlEntity;whiteSpace=wrap;html=1;fillColor=#dae8fc;strokeColor=#6c8ebf;" vertex="1" parent="1">
          <mxGeometry x="501" y="283" width="80" height="80" as="geometry" />
        </mxCell>
        <mxCell id="ZIIBvZ8sPeHpr9DOdTy8-57" value="" style="html=1;verticalAlign=bottom;endArrow=block;curved=0;rounded=0;exitX=0.024;exitY=0.407;exitDx=0;exitDy=0;exitPerimeter=0;entryX=1;entryY=0;entryDx=0;entryDy=0;" edge="1" parent="1" source="ZIIBvZ8sPeHpr9DOdTy8-44" target="ZIIBvZ8sPeHpr9DOdTy8-56">
          <mxGeometry x="0.025" width="80" relative="1" as="geometry">
            <mxPoint x="534" y="239" as="sourcePoint" />
            <mxPoint x="614" y="239" as="targetPoint" />
            <mxPoint as="offset" />
          </mxGeometry>
        </mxCell>
        <mxCell id="ZIIBvZ8sPeHpr9DOdTy8-58" value="" style="html=1;verticalAlign=bottom;endArrow=block;curved=0;rounded=0;exitX=1;exitY=0.5;exitDx=0;exitDy=0;entryX=0.037;entryY=0.651;entryDx=0;entryDy=0;entryPerimeter=0;" edge="1" parent="1" source="ZIIBvZ8sPeHpr9DOdTy8-56" target="ZIIBvZ8sPeHpr9DOdTy8-44">
          <mxGeometry width="80" relative="1" as="geometry">
            <mxPoint x="544" y="249" as="sourcePoint" />
            <mxPoint x="624" y="249" as="targetPoint" />
          </mxGeometry>
        </mxCell>
        <mxCell id="ZIIBvZ8sPeHpr9DOdTy8-59" value="会員情報" style="ellipse;shape=umlEntity;whiteSpace=wrap;html=1;fillColor=#dae8fc;strokeColor=#6c8ebf;" vertex="1" parent="1">
          <mxGeometry x="828" y="271" width="80" height="80" as="geometry" />
        </mxCell>
        <mxCell id="ZIIBvZ8sPeHpr9DOdTy8-60" value="予約されている場合" style="html=1;verticalAlign=bottom;endArrow=block;curved=0;rounded=0;exitX=0.95;exitY=0.429;exitDx=0;exitDy=0;exitPerimeter=0;entryX=0.054;entryY=0.307;entryDx=0;entryDy=0;entryPerimeter=0;" edge="1" parent="1" source="ZIIBvZ8sPeHpr9DOdTy8-44" target="ZIIBvZ8sPeHpr9DOdTy8-59">
          <mxGeometry width="80" relative="1" as="geometry">
            <mxPoint x="785" y="388" as="sourcePoint" />
            <mxPoint x="865" y="388" as="targetPoint" />
          </mxGeometry>
        </mxCell>
        <mxCell id="ZIIBvZ8sPeHpr9DOdTy8-61" value="メールアドレス" style="html=1;verticalAlign=bottom;endArrow=block;curved=0;rounded=0;exitX=0.032;exitY=0.707;exitDx=0;exitDy=0;exitPerimeter=0;entryX=0.925;entryY=0.785;entryDx=0;entryDy=0;entryPerimeter=0;" edge="1" parent="1" source="ZIIBvZ8sPeHpr9DOdTy8-59" target="ZIIBvZ8sPeHpr9DOdTy8-44">
          <mxGeometry width="80" relative="1" as="geometry">
            <mxPoint x="795" y="398" as="sourcePoint" />
            <mxPoint x="875" y="398" as="targetPoint" />
          </mxGeometry>
        </mxCell>
        <mxCell id="ZIIBvZ8sPeHpr9DOdTy8-62" value="予約されている場合&lt;div&gt;メッセージ表示&lt;/div&gt;" style="html=1;verticalAlign=bottom;endArrow=block;curved=0;rounded=0;exitX=0.706;exitY=1.018;exitDx=0;exitDy=0;exitPerimeter=0;entryX=0.857;entryY=0.888;entryDx=0;entryDy=0;entryPerimeter=0;" edge="1" parent="1" source="ZIIBvZ8sPeHpr9DOdTy8-44" target="ZIIBvZ8sPeHpr9DOdTy8-3">
          <mxGeometry width="80" relative="1" as="geometry">
            <mxPoint x="747" y="451" as="sourcePoint" />
            <mxPoint x="364" y="710" as="targetPoint" />
            <Array as="points">
              <mxPoint x="717" y="680" />
            </Array>
          </mxGeometry>
        </mxCell>
      </root>
    </mxGraphModel>
  </diagram>
</mxfile>
